
<svg id="imgresult" class="main__result__magnifyingglass" width="280" height="248" viewBox="0 0 336 304" fill="none" xmlns="http://www.w3.org/2000/svg">
<g clip-path="url(#clip0_2_1323)">

<path d="M35.9841 141.477C38.3987 141.477 40.3562 139.524 40.3562 137.114C40.3562 134.705 38.3987 132.751 35.9841 132.751C33.5695 132.751 31.6121 134.705 31.6121 137.114C31.6121 139.524 33.5695 141.477 35.9841 141.477Z" fill="#ff0000"/> <!-- rojo -->
<path d="M290.476 111.488C292.172 111.488 293.548 110.116 293.548 108.423C293.548 106.73 292.172 105.358 290.476 105.358C288.78 105.358 287.405 106.73 287.405 108.423C287.405 110.116 288.78 111.488 290.476 111.488Z" fill="#0A3871"/> <!-- azul -->
<path d="M262.833 4.70331C264.086 4.70331 265.102 3.68952 265.102 2.43894C265.102 1.18836 264.086 0.174561 262.833 0.174561C261.579 0.174561 260.564 1.18836 260.564 2.43894C260.564 3.68952 261.579 4.70331 262.833 4.70331Z" fill="#FFC300"/> <!-- verde -->
<path d="M162.884 201.069C164.443 201.069 165.707 199.808 165.707 198.252C165.707 196.697 164.443 195.436 162.884 195.436C161.325 195.436 160.062 196.697 160.062 198.252C160.062 199.808 161.325 201.069 162.884 201.069Z" fill="#ff0000"/> <!-- rojo -->
<path d="M32.7742 41.0991C34.5622 41.0991 36.0117 39.6526 36.0117 37.8682C36.0117 36.0838 34.5622 34.6373 32.7742 34.6373C30.9861 34.6373 29.5366 36.0838 29.5366 37.8682C29.5366 39.6526 30.9861 41.0991 32.7742 41.0991Z" fill="#b221ff"/> <!-- morado -->
<path d="M144.4 154.456C145.424 154.456 146.254 153.628 146.254 152.606C146.254 151.584 145.424 150.756 144.4 150.756C143.376 150.756 142.546 151.584 142.546 152.606C142.546 153.628 143.376 154.456 144.4 154.456Z" fill="#d86d08"/> <!-- anaranjado -->
<path d="M319.392 170.196C320.951 170.196 322.215 168.935 322.215 167.38C322.215 165.824 320.951 164.563 319.392 164.563C317.834 164.563 316.57 165.824 316.57 167.38C316.57 168.935 317.834 170.196 319.392 170.196Z" fill="#05b7db"/> <!-- celeste  -->
<path d="M11.7441 216.754C12.9056 216.754 13.8471 215.814 13.8471 214.655C13.8471 213.496 12.9056 212.557 11.7441 212.557C10.5827 212.557 9.64111 213.496 9.64111 214.655C9.64111 215.814 10.5827 216.754 11.7441 216.754Z" fill="#900C3F"/> <!-- verde claro -->

</g>
<defs>
<clipPath id="clip0_2_1323">
<rect width="280" height="248" fill="white"/>
</clipPath>
</defs>
</svg>