            
            <svg id="imgresult" class="img_diamond" width="290" height="256" viewBox="0 0 336 304" fill="none" xmlns="http://www.w3.org/2000/svg">
                <g clip-path="url(#clip0_2_1323)">
    
                <path d="M97.7461 53.6636C95.3387 58.5514 92.9036 63.4391 90.4962 68.3269C100.458 81.6646 110.419 94.9747 120.381 108.312C122.955 104.419 125.5 100.442 128.074 96.4383C134.134 86.9389 139.917 77.5501 145.451 68.244C143.57 63.4667 141.66 58.6618 139.779 53.8846C138.561 53.2494 137.344 52.6419 136.126 52.0068C124.338 52.0344 112.55 52.062 100.79 52.0896C99.7384 52.6419 98.7422 53.1666 97.7461 53.6636Z" fill="#e7f1ff"/>
                <path d="M90.8283 68.5478C92.9313 63.9362 95.0897 59.3522 97.3034 54.7959C97.5247 54.3264 96.8329 53.8846 96.5839 54.3816C94.3702 58.938 92.2118 63.522 90.1088 68.1336C89.8874 68.603 90.6069 69.0449 90.8283 68.5478Z" fill="#001ad3"/>
                <path d="M90.2748 69.0448C100.015 82.3826 109.949 95.5546 120.077 108.616C120.409 109.03 120.99 108.451 120.658 108.036C110.585 95.03 100.707 81.9131 90.9943 68.6306C90.6899 68.2164 89.9705 68.6306 90.2748 69.0448Z" fill="#001ad3"/>
                <path d="M97.4971 54.3264C98.6592 53.7189 99.7938 53.0837 100.956 52.4762C101.426 52.2277 101.011 51.5097 100.541 51.7583C99.3787 52.3658 98.2442 53.0009 97.082 53.6084C96.5839 53.8846 97.0266 54.5749 97.4971 54.3264Z" fill="#001ad3"/>
                <path d="M101.648 52.5314C110.281 52.5314 118.942 52.5314 127.576 52.5314C128.101 52.5314 128.101 51.703 127.576 51.703C118.942 51.703 110.281 51.703 101.648 51.703C101.122 51.703 101.122 52.5314 101.648 52.5314Z" fill="#001ad3"/>
                <path d="M145.839 68.1611C144.095 63.5496 142.297 58.9932 140.443 54.4092C140.249 53.9122 139.447 54.1331 139.64 54.6301C141.494 59.1865 143.293 63.7705 145.036 68.3821C145.23 68.8791 146.032 68.6582 145.839 68.1611Z" fill="#001ad3"/>
                <path d="M144.925 68.5754C136.818 81.8303 128.544 95.0024 120.104 108.064C119.8 108.506 120.519 108.92 120.824 108.478C129.264 95.4166 137.537 82.2721 145.645 68.9896C145.922 68.5478 145.202 68.106 144.925 68.5754Z" fill="#001ad3"/>
                <path d="M139.945 53.5533C138.976 52.9457 138.008 52.3106 137.039 51.7031C136.596 51.4269 136.181 52.1173 136.624 52.4211C137.593 53.0286 138.561 53.6637 139.53 54.2712C140 54.575 140.415 53.857 139.945 53.5533Z" fill="#001ad3"/>
                <path d="M136.098 51.6202C128.876 51.6202 121.654 51.6202 114.459 51.6202C113.934 51.6202 113.934 52.4487 114.459 52.4487C121.682 52.4487 128.904 52.4487 136.098 52.4487C136.624 52.4487 136.624 51.6202 136.098 51.6202Z" fill="#001ad3"/>
                <path d="M91.1605 68.962C96.1136 66.8357 101.067 64.7094 106.02 62.5831C106.518 62.3622 106.075 61.6718 105.605 61.8651C100.652 63.9914 95.6985 66.1177 90.7454 68.244C90.275 68.465 90.69 69.1829 91.1605 68.962Z" fill="#001ad3"/>
                <path d="M97.6354 54.0779C100.679 54.5473 103.668 55.2101 106.628 56.0385C107.154 56.1766 107.376 55.3758 106.85 55.2377C103.889 54.3816 100.901 53.7465 97.8567 53.2771C97.331 53.1942 97.0819 53.995 97.6354 54.0779Z" fill="#001ad3"/>
                <path d="M106.407 55.9005C107.071 57.9716 107.652 60.0426 108.15 62.1689C108.261 62.6936 109.064 62.4727 108.953 61.948C108.455 59.8217 107.874 57.7506 107.21 55.6796C107.044 55.1825 106.241 55.3758 106.407 55.9005Z" fill="#001ad3"/>
                <path d="M107.68 55.9833C115.096 55.9833 122.484 55.9833 129.9 55.9833C130.426 55.9833 130.426 55.1548 129.9 55.1548C122.484 55.1548 115.096 55.1548 107.68 55.1548C107.154 55.1548 107.154 55.9833 107.68 55.9833Z" fill="#001ad3"/>
                <path d="M129.54 56.149C129.264 57.6678 128.987 59.2142 128.71 60.733C128.627 61.2577 129.43 61.4786 129.513 60.9539C129.789 59.4351 130.066 57.8887 130.343 56.3699C130.426 55.8452 129.623 55.6243 129.54 56.149Z" fill="#001ad3"/>
                <path d="M108.593 62.2241C115.068 62.2241 121.543 62.2241 128.046 62.2241C128.572 62.2241 128.572 61.3956 128.046 61.3956C121.571 61.3956 115.096 61.3956 108.593 61.3956C108.067 61.3956 108.067 62.2241 108.593 62.2241Z" fill="#001ad3"/>
                <path d="M130.703 55.9833C133.719 55.3482 136.707 54.713 139.723 54.0779C140.249 53.9675 140.028 53.1666 139.502 53.2771C136.486 53.9122 133.497 54.5474 130.481 55.1825C129.955 55.2929 130.177 56.0938 130.703 55.9833Z" fill="#001ad3"/>
                <path d="M129.319 61.9756C132.114 62.4174 134.715 63.9914 137.261 65.1788C139.972 66.4491 142.656 67.7194 145.368 68.9896C145.839 69.2105 146.281 68.4926 145.783 68.2716C142.906 66.9185 140.055 65.5931 137.178 64.24C134.743 63.0802 132.224 61.6166 129.54 61.1748C129.015 61.0919 128.793 61.8927 129.319 61.9756Z" fill="#001ad3"/>
                <path d="M108.842 63.4944C112.44 78.2957 116.009 93.1246 119.606 107.926C119.745 108.451 120.519 108.23 120.409 107.705C116.812 92.9037 113.242 78.0748 109.645 63.2735C109.506 62.7488 108.704 62.9697 108.842 63.4944Z" fill="#001ad3"/>
                <path d="M128.157 64.4885C124.781 78.7375 121.986 93.1522 119.828 107.65C119.745 108.174 120.547 108.395 120.63 107.871C122.788 93.3731 125.583 78.986 128.959 64.7094C129.098 64.1847 128.295 63.9638 128.157 64.4885Z" fill="#001ad3"/>
                <path d="M128.433 36.8466C129.679 33.6709 130.37 30.3296 130.481 26.9054C130.509 26.3807 129.679 26.3807 129.651 26.9054C129.54 30.2467 128.849 33.5052 127.631 36.6257C127.437 37.1227 128.24 37.316 128.433 36.8466Z" fill="#001ad3"/>
                <path d="M134.106 37.3988C136.762 34.3888 139.751 31.7378 143.099 29.5011C143.542 29.1973 143.127 28.4794 142.684 28.7831C139.281 31.0475 136.209 33.7537 133.525 36.8189C133.165 37.2055 133.746 37.7854 134.106 37.3988Z" fill="#001ad3"/>
                <path d="M139.557 42.5075C142.989 41.4858 146.53 41.0992 150.1 41.3753C150.626 41.4029 150.626 40.5745 150.1 40.5469C146.447 40.2707 142.85 40.6573 139.336 41.7067C138.838 41.8724 139.032 42.6732 139.557 42.5075Z" fill="#001ad3"/>

                </g>
                <defs>
                <clipPath id="clip0_2_1323">
                <rect width="290" height="254" fill="white"/>
                </clipPath>
                </defs>
                </svg>


              
